<svg width="580" height="580" viewBox="0 0 580 580" fill="none" xmlns="http://www.w3.org/2000/svg">
<path d="M496.849 293.13L496.59 299.241C496.548 300.237 496.341 301.138 495.969 301.945C495.597 302.766 495.042 303.403 494.303 303.856C493.579 304.324 492.689 304.536 491.634 304.492C490.359 304.438 489.296 304.07 488.444 303.388C487.592 302.706 487.015 301.757 486.715 300.54L486.627 300.537L479.594 304.379L479.72 301.389L486.481 297.734L486.584 295.294L479.99 295.015L480.1 292.421L496.849 293.13ZM488.745 298.358C488.696 299.516 488.901 300.383 489.361 300.961C489.835 301.553 490.526 301.869 491.435 301.907C492.329 301.945 493.022 301.688 493.515 301.136C494.009 300.585 494.279 299.737 494.328 298.594L494.453 295.627L488.87 295.391L488.745 298.358Z" fill="#0B6F7E"/>
<path d="M478.872 309.023C478.98 307.84 479.333 306.804 479.929 305.916C480.54 305.029 481.337 304.366 482.32 303.925C483.316 303.501 484.428 303.345 485.655 303.457C486.852 303.566 487.902 303.927 488.803 304.54C489.703 305.167 490.375 305.957 490.818 306.911C491.274 307.88 491.452 308.92 491.35 310.03C491.245 311.184 490.898 312.161 490.309 312.962C489.719 313.777 488.929 314.367 487.938 314.733C486.961 315.115 485.837 315.248 484.566 315.132C484.274 315.106 484.041 315.077 483.867 315.046L484.701 305.91C483.731 305.895 482.915 306.196 482.255 306.813C481.61 307.432 481.239 308.267 481.143 309.319C481.08 310.005 481.127 310.621 481.283 311.165C481.438 311.724 481.722 312.244 482.135 312.723L480.483 314.119C479.89 313.519 479.45 312.772 479.164 311.877C478.876 310.997 478.779 310.045 478.872 309.023ZM486.001 312.723C486.824 312.739 487.519 312.471 488.085 311.919C488.665 311.368 488.995 310.662 489.074 309.8C489.158 308.88 488.974 308.075 488.521 307.386C488.067 306.711 487.429 306.285 486.606 306.106L486.001 312.723Z" fill="#0B6F7E"/>
<path d="M477.255 321.593C477.38 320.841 477.633 320.169 478.014 319.578C478.395 318.987 478.865 318.53 479.424 318.207L479.438 318.12L478.136 317.904L478.548 315.43L495.475 318.244L495.064 320.718L488.532 319.632L488.517 319.719C488.99 320.184 489.317 320.766 489.498 321.466C489.679 322.165 489.706 322.898 489.578 323.665C489.405 324.706 488.999 325.627 488.36 326.428C487.719 327.243 486.893 327.835 485.88 328.201C484.88 328.585 483.764 328.675 482.535 328.47C481.319 328.268 480.278 327.827 479.409 327.148C478.555 326.471 477.935 325.639 477.549 324.653C477.175 323.684 477.077 322.664 477.255 321.593ZM484.083 318.759C483.359 318.638 482.67 318.672 482.014 318.861C481.37 319.066 480.829 319.415 480.39 319.907C479.966 320.401 479.695 321.003 479.577 321.712C479.459 322.421 479.522 323.07 479.766 323.661C480.022 324.269 480.422 324.766 480.967 325.154C481.524 325.559 482.165 325.822 482.888 325.942C483.612 326.062 484.295 326.02 484.939 325.815C485.58 325.624 486.113 325.281 486.537 324.787C486.973 324.309 487.25 323.716 487.368 323.007C487.486 322.298 487.417 321.64 487.161 321.032C486.92 320.427 486.528 319.924 485.985 319.521C485.44 319.133 484.806 318.879 484.083 318.759Z" fill="#0B6F7E"/>
<path d="M486.432 329.704C487.499 331.287 487.818 333.06 487.391 335.024C487.045 336.615 486.358 337.771 485.33 338.493C484.314 339.233 483.046 339.437 481.527 339.106L474.326 337.54L474.859 335.089L476.622 335.472L476.64 335.386C475.496 334.162 475.106 332.711 475.471 331.034C475.639 330.26 475.941 329.598 476.376 329.047C476.808 328.511 477.334 328.13 477.953 327.904C478.572 327.679 479.233 327.643 479.935 327.795C481.053 328.039 481.851 328.648 482.33 329.622C482.808 330.597 482.884 331.837 482.556 333.341L481.845 336.609L482.211 336.689C482.97 336.854 483.619 336.702 484.156 336.234C484.704 335.783 485.069 335.142 485.25 334.31C485.518 333.078 485.3 331.942 484.595 330.903L486.432 329.704ZM479.517 330.339C479.044 330.236 478.604 330.328 478.196 330.614C477.8 330.918 477.529 331.407 477.382 332.081C477.239 332.74 477.247 333.357 477.407 333.932C477.581 334.511 477.881 334.996 478.306 335.389C478.731 335.781 479.237 336.042 479.825 336.169L479.997 336.207L480.717 332.896C480.882 332.137 480.846 331.543 480.609 331.117C480.383 330.707 480.019 330.448 479.517 330.339Z" fill="#0B6F7E"/>
<path d="M485.41 341.934L484.756 344.356L483.142 343.92L483.119 344.005C483.609 344.274 483.953 344.686 484.153 345.241C484.366 345.8 484.364 346.483 484.146 347.29L483.773 348.671L481.522 348.063L481.895 346.682C482.163 345.691 482.105 344.893 481.721 344.288C481.337 343.683 480.608 343.235 479.532 342.945L473.245 341.247L473.899 338.826L485.41 341.934Z" fill="#0B6F7E"/>
<path d="M404.735 463.264L402.385 464.65L394.401 455.438L394.325 455.483L397.034 467.702L394.4 469.255L385.039 460.958L384.963 461.003L389.157 472.448L386.807 473.834L381.174 457.694L383.524 456.309L393.971 465.626L394.047 465.581L390.991 451.907L393.341 450.521L404.735 463.264Z" fill="#0B6F7E"/>
<path d="M383.917 469.669L381.682 470.807L376.27 460.182L378.505 459.044L383.917 469.669ZM385.34 471.882C385.533 472.261 385.566 472.648 385.437 473.042C385.296 473.443 385.042 473.737 384.676 473.923C384.297 474.116 383.911 474.149 383.516 474.021C383.122 473.892 382.828 473.639 382.635 473.26C382.448 472.894 382.416 472.507 382.538 472.099C382.666 471.705 382.919 471.411 383.298 471.218C383.664 471.032 384.051 470.999 384.459 471.121C384.86 471.262 385.154 471.516 385.34 471.882Z" fill="#0B6F7E"/>
<path d="M378.98 472.173L376.718 473.256L375.996 471.748L375.917 471.786C376.032 472.333 375.944 472.862 375.653 473.376C375.369 473.902 374.849 474.346 374.095 474.707L372.805 475.324L371.798 473.221L373.088 472.603C374.014 472.16 374.582 471.596 374.79 470.911C374.999 470.225 374.863 469.38 374.381 468.375L371.57 462.501L373.832 461.418L378.98 472.173Z" fill="#0B6F7E"/>
<path d="M363.634 465.772C364.73 465.312 365.81 465.138 366.874 465.248C367.944 465.373 368.903 465.765 369.753 466.427C370.595 467.108 371.254 468.016 371.731 469.152C372.196 470.262 372.369 471.358 372.25 472.441C372.119 473.53 371.735 474.494 371.101 475.332C370.458 476.19 369.623 476.834 368.595 477.265C367.527 477.713 366.501 477.865 365.518 477.72C364.521 477.581 363.629 477.16 362.841 476.457C362.046 475.773 361.401 474.842 360.908 473.665C360.794 473.395 360.71 473.175 360.656 473.008L369.117 469.461C368.675 468.597 368.027 468.017 367.172 467.724C366.323 467.443 365.411 467.507 364.437 467.916C363.802 468.182 363.28 468.512 362.873 468.906C362.451 469.305 362.126 469.799 361.896 470.389L359.889 469.584C360.14 468.779 360.593 468.04 361.25 467.367C361.892 466.7 362.687 466.168 363.634 465.772ZM363.709 473.803C364.08 474.538 364.643 475.026 365.396 475.267C366.155 475.521 366.933 475.481 367.731 475.147C368.583 474.789 369.208 474.249 369.604 473.526C369.987 472.809 370.065 472.045 369.836 471.235L363.709 473.803Z" fill="#0B6F7E"/>
<path d="M358.427 486.1L352.603 487.967C351.653 488.271 350.736 488.388 349.851 488.318C348.952 488.252 348.162 487.951 347.482 487.414C346.792 486.896 346.286 486.134 345.964 485.128C345.574 483.913 345.552 482.788 345.898 481.753C346.244 480.718 346.936 479.85 347.974 479.147L347.947 479.063L341.913 473.79L344.762 472.876L350.527 477.959L352.852 477.214L350.837 470.929L353.309 470.136L358.427 486.1ZM350.722 480.299C349.619 480.653 348.876 481.145 348.493 481.776C348.1 482.426 348.043 483.183 348.321 484.049C348.594 484.901 349.074 485.463 349.762 485.736C350.45 486.008 351.339 485.97 352.428 485.62L355.257 484.714L353.551 479.392L350.722 480.299Z" fill="#0B6F7E"/>
<path d="M336.645 474.813C337.725 474.539 338.783 474.536 339.819 474.803C340.855 475.07 341.759 475.59 342.53 476.363C343.304 477.15 343.846 478.155 344.156 479.377C344.455 480.557 344.457 481.669 344.162 482.712C343.87 483.77 343.334 484.67 342.554 485.412C341.774 486.154 340.829 486.666 339.72 486.947C338.654 487.218 337.603 487.219 336.567 486.952C335.535 486.7 334.631 486.18 333.857 485.393C333.086 484.62 332.545 483.622 332.235 482.399C331.936 481.219 331.933 480.1 332.224 479.043C332.516 477.986 333.052 477.086 333.832 476.343C334.598 475.604 335.536 475.094 336.645 474.813ZM341.683 480.004C341.499 479.279 341.191 478.661 340.759 478.151C340.327 477.64 339.804 477.28 339.192 477.072C338.569 476.882 337.909 476.876 337.212 477.052C336.515 477.229 335.946 477.547 335.502 478.008C335.063 478.482 334.775 479.047 334.638 479.702C334.502 480.357 334.525 481.047 334.709 481.772C334.889 482.483 335.195 483.094 335.628 483.605C336.06 484.115 336.58 484.468 337.189 484.661C337.802 484.869 338.456 484.885 339.153 484.708C339.849 484.532 340.425 484.204 340.878 483.726C341.322 483.266 341.611 482.708 341.748 482.053C341.885 481.398 341.863 480.715 341.683 480.004Z" fill="#0B6F7E"/>
<path d="M325.18 477.333C326.218 477.137 327.216 477.21 328.176 477.551C329.136 477.893 329.963 478.476 330.655 479.3C331.336 480.142 331.79 481.161 332.015 482.357C332.246 483.582 332.191 484.712 331.849 485.747C331.506 486.782 330.943 487.634 330.159 488.304C329.363 488.992 328.418 489.439 327.323 489.645C326.544 489.792 325.818 489.78 325.144 489.608C324.47 489.437 323.895 489.12 323.42 488.657L323.333 488.673L324.561 495.181L322.096 495.646L318.916 478.783L321.381 478.318L321.666 479.831L321.753 479.815C321.937 479.213 322.339 478.69 322.956 478.245C323.574 477.8 324.315 477.496 325.18 477.333ZM329.52 482.895C329.384 482.174 329.115 481.539 328.712 480.988C328.298 480.454 327.785 480.066 327.172 479.823C326.562 479.595 325.903 479.547 325.197 479.68C324.491 479.814 323.903 480.096 323.432 480.528C322.949 480.977 322.62 481.525 322.443 482.17C322.254 482.832 322.228 483.524 322.364 484.244C322.5 484.965 322.775 485.592 323.189 486.126C323.589 486.663 324.094 487.045 324.704 487.273C325.302 487.519 325.955 487.575 326.661 487.442C327.367 487.308 327.961 487.017 328.444 486.568C328.929 486.133 329.267 485.592 329.458 484.944C329.635 484.299 329.656 483.616 329.52 482.895Z" fill="#0B6F7E"/>
<path d="M182.842 467.826L180.664 466.413L184.449 460.582L177.252 455.91L173.467 461.742L171.29 460.328L180.416 446.267L182.594 447.68L178.498 453.991L185.695 458.662L189.791 452.351L191.968 453.765L182.842 467.826Z" fill="#0B6F7E"/>
<path d="M169.504 458.985L164.633 455.287C163.839 454.684 163.216 453.999 162.766 453.234C162.304 452.46 162.098 451.64 162.147 450.775C162.175 449.913 162.509 449.061 163.147 448.22C163.919 447.204 164.828 446.54 165.874 446.23C166.92 445.919 168.028 445.987 169.199 446.434L169.252 446.364L170.109 438.396L172.492 440.205L171.637 447.843L173.582 449.32L177.573 444.063L179.641 445.633L169.504 458.985ZM169.833 449.346C168.911 448.646 168.081 448.32 167.344 448.368C166.587 448.419 165.934 448.807 165.384 449.531C164.843 450.244 164.658 450.96 164.83 451.68C165.002 452.399 165.543 453.105 166.454 453.797L168.82 455.593L172.199 451.142L169.833 449.346Z" fill="#0B6F7E"/>
<path d="M164.635 433.274C165.911 434.399 166.785 435.659 167.257 437.053C167.708 438.448 167.761 439.863 167.414 441.298C167.068 442.733 166.342 444.078 165.236 445.332C164.14 446.575 162.879 447.438 161.455 447.922C160.021 448.418 158.577 448.513 157.124 448.21C155.65 447.907 154.331 447.242 153.165 446.214C151.977 445.166 151.162 443.939 150.72 442.533C150.533 441.859 150.427 441.247 150.403 440.698L152.81 440.562C152.847 441.318 153.037 442.034 153.381 442.709C153.704 443.385 154.163 443.984 154.757 444.508C155.593 445.246 156.53 445.691 157.568 445.844C158.597 446.008 159.618 445.892 160.632 445.496C161.637 445.111 162.523 444.484 163.289 443.615C164.094 442.702 164.641 441.727 164.929 440.69C165.208 439.665 165.197 438.658 164.895 437.669C164.585 436.691 163.989 435.814 163.109 435.037C162.339 434.358 161.385 433.888 160.246 433.627C159.856 433.537 159.392 433.509 158.854 433.543L158.706 431.183C159.804 431.135 160.863 431.287 161.883 431.638C162.882 431.991 163.799 432.537 164.635 433.274Z" fill="#0B6F7E"/>
<path d="M84.5957 315.006L84.0021 308.919C83.8427 307.284 84.1087 305.932 84.8001 304.862C85.477 303.794 86.6037 303.183 88.1802 303.03C89.3188 302.919 90.3225 303.086 91.1912 303.532C92.0584 303.963 92.7486 304.618 93.2616 305.496C93.7586 306.361 94.064 307.378 94.1779 308.546L94.4598 311.436L101.029 310.795L101.281 313.379L84.5957 315.006ZM91.8943 308.702C91.7833 307.563 91.4591 306.733 90.9219 306.211C90.3847 305.688 89.6562 305.472 88.7366 305.562C86.9119 305.74 86.1106 306.967 86.3327 309.244L86.621 312.2L92.1826 311.658L91.8943 308.702Z" fill="#0B6F7E"/>
<path d="M100.209 299.849C100.288 301.49 99.5074 302.35 97.8667 302.429L83.1879 303.139L83.0666 300.634L96.5369 299.982C97.0496 299.958 97.4039 299.845 97.5998 299.645C97.795 299.43 97.8823 299.11 97.8617 298.685L97.7979 297.366L100.083 297.256L100.209 299.849Z" fill="#0B6F7E"/>
<path d="M89.836 296.695C88.4574 295.375 87.768 293.71 87.768 291.701C87.768 290.073 88.1933 288.797 89.044 287.873C89.88 286.934 91.0753 286.465 92.63 286.465L100 286.465L100 288.973L98.196 288.973L98.196 289.061C99.5747 290.014 100.264 291.349 100.264 293.065C100.264 293.857 100.11 294.568 99.802 295.199C99.494 295.815 99.0614 296.299 98.504 296.651C97.9467 297.003 97.3087 297.179 96.59 297.179C95.446 297.179 94.5367 296.754 93.862 295.903C93.1874 295.052 92.85 293.857 92.85 292.317L92.85 288.973L92.476 288.973C91.6987 288.973 91.0973 289.259 90.672 289.831C90.232 290.388 90.012 291.092 90.012 291.943C90.012 293.204 90.4667 294.268 91.376 295.133L89.836 296.695ZM96.458 294.605C96.942 294.605 97.3527 294.422 97.69 294.055C98.0127 293.674 98.174 293.138 98.174 292.449C98.174 291.774 98.0347 291.173 97.756 290.645C97.4627 290.117 97.0667 289.706 96.568 289.413C96.0693 289.12 95.5193 288.973 94.918 288.973L94.742 288.973L94.742 292.361C94.742 293.138 94.9034 293.71 95.226 294.077C95.534 294.429 95.9447 294.605 96.458 294.605Z" fill="#0B6F7E"/>
<path d="M100.184 282.363C100.105 284.004 99.2446 284.785 97.6039 284.706L90.0447 284.34L89.9958 285.351L88.106 285.259L88.1549 284.248L85.2104 284.106L85.3316 281.601L88.2762 281.743L88.4314 278.535L90.3212 278.626L90.166 281.835L96.5165 282.142C97.0293 282.167 97.3928 282.089 97.6071 281.908C97.8221 281.713 97.9399 281.403 97.9605 280.978L98.0562 279.001L100.341 279.111L100.184 282.363Z" fill="#0B6F7E"/>
<path d="M101.022 273.743C100.921 274.927 100.575 275.964 99.984 276.856C99.3782 277.746 98.5853 278.415 97.6052 278.861C96.6117 279.292 95.5012 279.455 94.2737 279.35C93.0753 279.248 92.0236 278.894 91.1186 278.287C90.2147 277.665 89.5384 276.879 89.0894 275.928C88.6272 274.961 88.4433 273.923 88.538 272.812C88.6363 271.657 88.9773 270.678 89.561 269.874C90.1459 269.055 90.9327 268.46 91.9211 268.088C92.8963 267.7 94.0195 267.56 95.2909 267.669C95.5832 267.693 95.8164 267.721 95.9905 267.75L95.2118 276.891C96.1825 276.9 96.9961 276.594 97.6525 275.973C98.2943 275.351 98.6601 274.513 98.7497 273.461C98.8082 272.774 98.7576 272.159 98.5978 271.615C98.4393 271.057 98.1522 270.54 97.7365 270.063L99.3797 268.657C99.9767 269.253 100.421 269.997 100.713 270.89C101.006 271.769 101.109 272.72 101.022 273.743ZM93.8705 270.087C93.0472 270.075 92.3542 270.348 91.7917 270.903C91.2146 271.458 90.8893 272.166 90.8158 273.028C90.7374 273.949 90.9265 274.752 91.3832 275.439C91.8412 276.111 92.4823 276.533 93.3066 276.707L93.8705 270.087Z" fill="#0B6F7E"/>
<path d="M163.807 149.16C162.949 149.917 162.001 150.45 160.964 150.759C159.937 151.058 158.904 151.118 157.866 150.939L158.03 148.33C158.875 148.446 159.672 148.407 160.422 148.215C161.172 148.023 161.816 147.69 162.355 147.214C162.993 146.652 163.359 146.036 163.453 145.366C163.558 144.687 163.387 144.094 162.941 143.588C162.233 142.785 161.004 142.656 159.256 143.201L156.856 143.939C155.626 144.319 154.564 144.445 153.668 144.316C152.773 144.166 152.006 143.728 151.365 143.002C150.793 142.353 150.454 141.626 150.349 140.819C150.255 140.002 150.389 139.19 150.751 138.381C151.104 137.562 151.66 136.817 152.419 136.148C153.937 134.809 155.65 134.246 157.559 134.46L157.407 136.882C156.704 136.838 156.071 136.907 155.508 137.09C154.948 137.252 154.436 137.537 153.974 137.944C153.38 138.468 153.012 139.038 152.869 139.652C152.728 140.246 152.842 140.752 153.211 141.17C153.54 141.544 153.985 141.748 154.544 141.783C155.104 141.798 155.787 141.674 156.593 141.413L158.838 140.666C161.416 139.819 163.423 140.21 164.859 141.838C165.48 142.542 165.851 143.329 165.973 144.199C166.086 145.058 165.953 145.928 165.576 146.809C165.2 147.668 164.61 148.452 163.807 149.16Z" fill="#0B6F7E"/>
<path d="M172.645 141.749C171.717 142.49 170.726 142.953 169.672 143.138C168.609 143.311 167.578 143.195 166.58 142.791C165.584 142.366 164.702 141.673 163.933 140.71C163.182 139.77 162.716 138.763 162.534 137.689C162.363 136.605 162.468 135.573 162.849 134.593C163.233 133.593 163.86 132.745 164.731 132.049C165.636 131.326 166.582 130.9 167.567 130.77C168.563 130.631 169.537 130.793 170.487 131.254C171.439 131.694 172.313 132.413 173.11 133.41C173.293 133.64 173.433 133.828 173.532 133.974L166.363 139.699C167.024 140.409 167.806 140.789 168.708 140.838C169.602 140.876 170.461 140.565 171.286 139.906C171.825 139.476 172.236 139.016 172.521 138.526C172.817 138.027 172.995 137.462 173.055 136.833L175.206 137.058C175.184 137.901 174.95 138.735 174.502 139.562C174.066 140.379 173.447 141.108 172.645 141.749ZM170.378 134.044C169.819 133.438 169.145 133.123 168.355 133.097C167.555 133.06 166.818 133.311 166.141 133.851C165.419 134.427 164.966 135.117 164.782 135.921C164.61 136.716 164.744 137.472 165.186 138.189L170.378 134.044Z" fill="#0B6F7E"/>
<path d="M171.042 129.783C171.329 127.896 172.295 126.375 173.939 125.219C175.271 124.283 176.559 123.897 177.804 124.062C179.053 124.206 180.124 124.914 181.018 126.186L185.256 132.216L183.204 133.658L182.167 132.182L182.095 132.233C182.107 133.909 181.412 135.241 180.008 136.227C179.36 136.683 178.689 136.966 177.996 137.076C177.315 137.178 176.67 137.103 176.062 136.849C175.453 136.596 174.942 136.175 174.529 135.587C173.871 134.651 173.697 133.662 174.005 132.621C174.313 131.58 175.097 130.617 176.357 129.731L179.093 127.808L178.878 127.503C178.431 126.867 177.851 126.539 177.138 126.52C176.429 126.48 175.727 126.705 175.031 127.194C173.999 127.92 173.39 128.903 173.205 130.144L171.042 129.783ZM176.559 133.999C176.838 134.395 177.224 134.625 177.718 134.69C178.215 134.735 178.746 134.559 179.31 134.163C179.862 133.775 180.274 133.315 180.546 132.784C180.809 132.24 180.917 131.68 180.87 131.103C180.824 130.527 180.627 129.992 180.282 129.5L180.181 129.356L177.409 131.305C176.773 131.751 176.397 132.212 176.283 132.687C176.172 133.142 176.264 133.579 176.559 133.999Z" fill="#0B6F7E"/>
<path d="M179.58 121.44L181.748 120.179L182.633 121.701L182.709 121.657C182.673 120.982 182.854 120.317 183.253 119.661C183.658 118.984 184.215 118.44 184.925 118.027C185.673 117.592 186.448 117.379 187.251 117.388C188.066 117.389 188.809 117.618 189.482 118.075L189.558 118.031C189.576 116.223 190.352 114.873 191.886 113.981C193.167 113.236 194.386 113.028 195.544 113.356C196.707 113.664 197.664 114.464 198.416 115.758L202.12 122.129L199.951 123.39L196.48 117.418C195.986 116.568 195.373 116.025 194.642 115.789C193.903 115.539 193.173 115.625 192.45 116.045C191.626 116.524 191.155 117.188 191.037 118.037C190.92 118.885 191.149 119.804 191.724 120.793L194.93 126.309L192.762 127.569L189.29 121.597C188.789 120.735 188.173 120.185 187.441 119.949C186.723 119.705 185.996 119.797 185.26 120.224C184.436 120.703 183.965 121.367 183.848 122.216C183.731 123.064 183.959 123.983 184.534 124.972L187.741 130.488L185.572 131.749L179.58 121.44Z" fill="#0B6F7E"/>
<path d="M204.992 120.88C203.524 121.616 202.421 121.25 201.685 119.782L195.095 106.646L197.337 105.522L203.384 117.576C203.614 118.035 203.86 118.313 204.123 118.411C204.398 118.503 204.726 118.453 205.106 118.263L206.286 117.671L207.312 119.716L204.992 120.88Z" fill="#0B6F7E"/>
<path d="M212.359 117.67C211.278 118.163 210.204 118.37 209.137 118.293C208.064 118.202 207.093 117.839 206.223 117.204C205.36 116.55 204.673 115.662 204.162 114.541C203.663 113.447 203.456 112.357 203.541 111.27C203.639 110.178 203.992 109.202 204.6 108.345C205.216 107.468 206.031 106.798 207.045 106.335C208.099 105.854 209.12 105.671 210.107 105.785C211.107 105.893 212.012 106.286 212.821 106.965C213.638 107.624 214.311 108.535 214.84 109.695C214.962 109.962 215.052 110.179 215.112 110.345L206.765 114.152C207.234 115.002 207.899 115.561 208.763 115.828C209.62 116.082 210.529 115.99 211.49 115.552C212.117 115.266 212.628 114.92 213.024 114.514C213.432 114.102 213.742 113.597 213.954 113.001L215.985 113.743C215.759 114.556 215.328 115.308 214.693 116.001C214.071 116.687 213.293 117.244 212.359 117.67ZM212.036 109.644C211.642 108.921 211.065 108.451 210.305 108.234C209.538 108.003 208.762 108.067 207.974 108.426C207.134 108.809 206.526 109.369 206.152 110.103C205.791 110.832 205.738 111.598 205.991 112.401L212.036 109.644Z" fill="#0B6F7E"/>
<path d="M221.692 113.779C220.678 114.168 219.695 114.348 218.742 114.321C217.803 114.288 217.06 114.133 216.514 113.855L217.464 111.724C217.943 111.949 218.505 112.063 219.151 112.067C219.796 112.071 220.42 111.958 221.023 111.727C221.612 111.501 222.037 111.197 222.299 110.814C222.555 110.417 222.607 110.02 222.455 109.623C222.187 108.924 221.437 108.647 220.204 108.789L218.902 108.958C217.72 109.113 216.74 109.056 215.963 108.789C215.185 108.522 214.633 107.964 214.308 107.114C214.061 106.471 214.03 105.815 214.214 105.148C214.398 104.48 214.77 103.874 215.331 103.33C215.886 102.771 216.575 102.334 217.397 102.019C218.287 101.678 219.154 101.542 219.997 101.612C220.841 101.681 221.562 101.884 222.162 102.219L221.3 104.152C220.906 103.942 220.428 103.803 219.868 103.734C219.322 103.661 218.747 103.74 218.145 103.971C217.515 104.212 217.069 104.525 216.807 104.908C216.541 105.277 216.475 105.64 216.612 105.996C216.727 106.297 216.961 106.498 217.314 106.598C217.661 106.685 218.195 106.685 218.916 106.597L219.968 106.453C222.516 106.136 224.114 106.82 224.759 108.504C225.022 109.189 225.066 109.879 224.893 110.573C224.728 111.249 224.37 111.873 223.819 112.445C223.264 113.004 222.555 113.448 221.692 113.779Z" fill="#0B6F7E"/>
<path d="M230.635 110.584C229.603 110.922 228.612 111.054 227.662 110.979C226.725 110.9 225.991 110.708 225.459 110.404L226.514 108.322C226.981 108.571 227.537 108.713 228.181 108.749C228.826 108.784 229.455 108.702 230.068 108.501C230.668 108.305 231.107 108.022 231.388 107.653C231.663 107.269 231.735 106.875 231.603 106.471C231.37 105.76 230.634 105.445 229.395 105.527L228.087 105.631C226.899 105.727 225.923 105.622 225.159 105.317C224.396 105.011 223.872 104.426 223.59 103.562C223.375 102.907 223.376 102.251 223.593 101.593C223.81 100.936 224.212 100.349 224.799 99.8325C225.382 99.3022 226.091 98.9001 226.927 98.6263C227.833 98.3296 228.706 98.2369 229.545 98.348C230.384 98.4591 231.094 98.6971 231.677 99.062L230.721 100.949C230.337 100.72 229.867 100.557 229.311 100.462C228.769 100.361 228.191 100.412 227.578 100.613C226.937 100.822 226.476 101.112 226.196 101.482C225.911 101.837 225.828 102.196 225.946 102.559C226.047 102.865 226.271 103.078 226.618 103.195C226.96 103.299 227.494 103.325 228.218 103.274L229.275 103.182C231.837 102.991 233.398 103.753 233.959 105.468C234.188 106.165 234.198 106.856 233.99 107.541C233.792 108.208 233.404 108.813 232.826 109.358C232.243 109.888 231.513 110.297 230.635 110.584Z" fill="#0B6F7E"/>
<path d="M237.525 90.7345L243.481 89.3419C245.08 88.9679 246.456 89.0529 247.607 89.597C248.755 90.1268 249.51 91.163 249.87 92.7053C250.131 93.8193 250.097 94.8363 249.77 95.7562C249.458 96.6729 248.9 97.4435 248.097 98.068C247.305 98.675 246.338 99.112 245.195 99.3792L242.367 100.04L243.87 106.467L241.342 107.058L237.525 90.7345ZM244.738 97.1362C245.852 96.8758 246.633 96.4448 247.079 95.8432C247.526 95.2417 247.644 94.4911 247.434 93.5913C247.017 91.8062 245.694 91.1741 243.466 91.695L240.574 92.3713L241.846 97.8125L244.738 97.1362Z" fill="#0B6F7E"/>
<path d="M250.249 92.8384L252.71 92.3585L254.992 104.062L252.53 104.542L250.249 92.8384ZM249.488 90.3193C249.407 89.9019 249.482 89.5211 249.714 89.177C249.96 88.8302 250.285 88.6175 250.688 88.5389C251.105 88.4575 251.486 88.5327 251.83 88.7645C252.174 88.9962 252.387 89.3209 252.468 89.7383C252.547 90.1414 252.472 90.5222 252.243 90.8806C252.011 91.2247 251.686 91.4374 251.269 91.5188C250.866 91.5974 250.485 91.5222 250.127 91.2932C249.78 91.047 249.567 90.7224 249.488 90.3193Z" fill="#0B6F7E"/>
<path d="M255.411 91.8029L257.893 91.4449L258.091 92.8167L258.178 92.8041C258.478 92.2126 258.934 91.7245 259.545 91.34C260.156 90.9555 260.847 90.7077 261.616 90.5968C262.661 90.446 263.662 90.5536 264.619 90.9195C265.59 91.2832 266.404 91.892 267.061 92.7456C267.73 93.5827 268.153 94.6182 268.331 95.8521C268.507 97.0715 268.403 98.1979 268.018 99.2314C267.632 100.25 267.027 101.093 266.205 101.76C265.394 102.41 264.452 102.813 263.378 102.968C262.623 103.077 261.907 103.039 261.228 102.856C260.549 102.672 259.971 102.363 259.494 101.928L259.407 101.94L260.286 108.037L257.804 108.395L255.411 91.8029ZM258.607 97.3211C258.712 98.047 258.953 98.6938 259.332 99.2616C259.722 99.8128 260.219 100.223 260.82 100.492C261.42 100.746 262.076 100.822 262.787 100.719C263.498 100.617 264.098 100.36 264.587 99.9484C265.089 99.5205 265.442 98.988 265.646 98.3509C265.863 97.6973 265.919 97.0075 265.815 96.2817C265.71 95.5559 265.462 94.9174 265.072 94.3662C264.695 93.8128 264.207 93.409 263.608 93.1547C263.02 92.8838 262.371 92.7996 261.66 92.9022C260.948 93.0048 260.342 93.27 259.841 93.698C259.337 94.1114 258.976 94.6377 258.757 95.2768C258.552 95.9139 258.502 96.5953 258.607 97.3211Z" fill="#0B6F7E"/>
<path d="M274.601 101.734C273.417 101.831 272.336 101.662 271.359 101.227C270.38 100.778 269.589 100.107 268.986 99.2148C268.396 98.3067 268.051 97.2387 267.95 96.0108C267.852 94.8122 268.027 93.7162 268.475 92.7229C268.938 91.7283 269.601 90.9307 270.464 90.3301C271.34 89.7136 272.334 89.3597 273.445 89.2685C274.6 89.1737 275.622 89.3472 276.512 89.7892C277.416 90.23 278.134 90.9068 278.665 91.8198C279.21 92.7169 279.534 93.8013 279.639 95.073C279.663 95.3653 279.675 95.5998 279.675 95.7764L270.531 96.5273C270.684 97.4861 271.121 98.2375 271.842 98.7816C272.563 99.3111 273.449 99.5326 274.502 99.4462C275.189 99.3897 275.787 99.2376 276.296 98.9897C276.82 98.7407 277.283 98.3716 277.684 97.8824L279.343 99.2693C278.855 99.9569 278.195 100.519 277.363 100.955C276.545 101.39 275.624 101.65 274.601 101.734ZM277.018 94.0741C276.893 93.2604 276.509 92.6223 275.868 92.1599C275.225 91.6829 274.473 91.4798 273.61 91.5506C272.689 91.6262 271.928 91.9463 271.327 92.5107C270.741 93.0739 270.431 93.7763 270.397 94.6179L277.018 94.0741Z" fill="#0B6F7E"/>
<path d="M408.32 142.52C407.421 141.812 406.727 140.975 406.237 140.009C405.758 139.053 405.514 138.048 405.505 136.994L408.1 136.688C408.138 137.539 408.319 138.317 408.642 139.02C408.965 139.723 409.409 140.297 409.974 140.742C410.642 141.269 411.313 141.519 411.989 141.491C412.676 141.472 413.228 141.198 413.646 140.668C414.309 139.828 414.215 138.596 413.366 136.973L412.209 134.745C411.615 133.604 411.301 132.581 411.267 131.676C411.254 130.769 411.547 129.936 412.146 129.176C412.682 128.496 413.337 128.032 414.112 127.784C414.898 127.545 415.722 127.531 416.582 127.743C417.452 127.943 418.284 128.356 419.078 128.982C420.668 130.236 421.529 131.82 421.661 133.737L419.251 134.022C419.168 133.321 418.987 132.711 418.706 132.191C418.446 131.668 418.074 131.216 417.59 130.835C416.968 130.344 416.342 130.084 415.712 130.054C415.102 130.022 414.625 130.224 414.28 130.662C413.971 131.054 413.85 131.528 413.915 132.084C414.002 132.637 414.246 133.287 414.647 134.034L415.785 136.108C417.08 138.492 417.056 140.537 415.712 142.241C415.131 142.978 414.423 143.485 413.589 143.761C412.764 144.026 411.884 144.051 410.95 143.838C410.037 143.622 409.16 143.183 408.32 142.52Z" fill="#0B6F7E"/>
<path d="M416.897 149.799C416.011 149.007 415.389 148.108 415.03 147.1C414.682 146.081 414.623 145.045 414.855 143.993C415.107 142.94 415.643 141.954 416.464 141.035C417.265 140.138 418.18 139.51 419.208 139.151C420.248 138.801 421.283 138.732 422.313 138.944C423.364 139.155 424.305 139.631 425.136 140.374C426 141.145 426.579 142.006 426.871 142.955C427.175 143.915 427.179 144.901 426.883 145.915C426.608 146.928 426.045 147.91 425.195 148.862C425 149.081 424.838 149.251 424.71 149.372L417.867 143.262C417.277 144.033 417.033 144.867 417.136 145.765C417.249 146.652 417.699 147.447 418.486 148.151C419.001 148.61 419.523 148.939 420.054 149.137C420.595 149.345 421.181 149.427 421.812 149.38L421.95 151.538C421.115 151.658 420.253 151.567 419.364 151.264C418.485 150.971 417.663 150.483 416.897 149.799ZM424.114 146.274C424.617 145.623 424.816 144.905 424.709 144.122C424.612 143.327 424.241 142.642 423.596 142.065C422.906 141.45 422.15 141.119 421.327 141.072C420.515 141.035 419.792 141.294 419.158 141.849L424.114 146.274Z" fill="#0B6F7E"/>
<path d="M424.908 157.446C424.103 156.634 423.563 155.713 423.287 154.685C423.012 153.657 423.027 152.62 423.333 151.574C423.638 150.528 424.223 149.577 425.088 148.72C425.974 147.842 426.941 147.266 427.99 146.991C429.059 146.716 430.101 146.726 431.116 147.021C432.142 147.326 433.052 147.88 433.847 148.682C435.23 150.078 435.798 151.693 435.551 153.528L433.342 153.518C433.503 152.284 433.151 151.23 432.283 150.355C431.488 149.553 430.588 149.175 429.582 149.223C428.586 149.26 427.677 149.686 426.853 150.501C426.333 151.017 425.957 151.597 425.725 152.238C425.515 152.881 425.481 153.523 425.623 154.167C425.766 154.811 426.1 155.398 426.626 155.93C427.421 156.732 428.457 157.12 429.732 157.095L429.722 159.304C428.892 159.383 428.058 159.27 427.219 158.966C426.381 158.661 425.61 158.155 424.908 157.446Z" fill="#0B6F7E"/>
<path d="M431.153 163.674C430.055 162.452 430.117 161.292 431.339 160.194L436.968 155.136L436.292 154.384L437.699 153.119L438.376 153.872L440.569 151.902L442.245 153.767L440.052 155.737L442.199 158.127L440.791 159.391L438.644 157.002L433.915 161.251C433.533 161.594 433.33 161.905 433.304 162.184C433.289 162.474 433.423 162.778 433.707 163.094L435.031 164.567L433.329 166.096L431.153 163.674Z" fill="#0B6F7E"/>
<path d="M442.53 158.531L444.16 160.437L435.097 168.186L433.467 166.28L442.53 158.531ZM444.348 156.629C444.671 156.352 445.04 156.23 445.453 156.262C445.876 156.306 446.221 156.484 446.488 156.796C446.765 157.119 446.887 157.487 446.855 157.901C446.822 158.315 446.644 158.66 446.321 158.936C446.009 159.203 445.641 159.325 445.216 159.302C444.802 159.27 444.457 159.092 444.181 158.769C443.914 158.457 443.792 158.088 443.815 157.664C443.858 157.24 444.036 156.895 444.348 156.629Z" fill="#0B6F7E"/>
<path d="M439.701 174.27C439.019 173.389 438.593 172.42 438.425 171.363C438.257 170.307 438.373 169.271 438.774 168.256C439.187 167.232 439.893 166.334 440.89 165.562C441.853 164.817 442.872 164.372 443.946 164.226C445.032 164.072 446.071 164.205 447.063 164.624C448.055 165.043 448.901 165.705 449.601 166.61C450.274 167.48 450.695 168.443 450.864 169.5C451.044 170.547 450.927 171.583 450.514 172.608C450.113 173.623 449.413 174.516 448.416 175.288C447.453 176.033 446.429 176.483 445.343 176.637C444.256 176.791 443.217 176.658 442.225 176.239C441.242 175.832 440.401 175.175 439.701 174.27ZM442.452 167.58C441.86 168.038 441.416 168.567 441.12 169.167C440.824 169.767 440.703 170.389 440.757 171.033C440.831 171.681 441.088 172.289 441.528 172.857C441.968 173.425 442.487 173.821 443.086 174.044C443.696 174.257 444.329 174.296 444.984 174.16C445.639 174.024 446.263 173.728 446.854 173.27C447.434 172.821 447.872 172.297 448.168 171.697C448.464 171.097 448.58 170.479 448.514 169.843C448.461 169.199 448.214 168.592 447.774 168.024C447.335 167.455 446.805 167.058 446.185 166.833C445.587 166.61 444.96 166.567 444.304 166.703C443.649 166.839 443.032 167.131 442.452 167.58Z" fill="#0B6F7E"/>
<path d="M457.654 177.809C458.454 178.985 458.738 180.159 458.504 181.328C458.279 182.51 457.518 183.542 456.22 184.425L450.199 188.52L448.789 186.446L454.319 182.685C455.18 182.099 455.704 181.423 455.893 180.657C456.093 179.882 455.954 179.143 455.475 178.439C454.964 177.688 454.266 177.249 453.382 177.123C452.507 177.009 451.584 177.282 450.614 177.941L445.411 181.48L444 179.406L453.86 172.7L455.271 174.774L453.815 175.764L453.865 175.837C454.523 175.761 455.2 175.895 455.894 176.239C456.589 176.582 457.176 177.106 457.654 177.809Z" fill="#0B6F7E"/>
</svg>
